<mxfile host="Electron" agent="Mozilla/5.0 (Windows NT 10.0; Win64; x64) AppleWebKit/537.36 (KHTML, like Gecko) draw.io/25.0.2 Chrome/128.0.6613.186 Electron/32.2.5 Safari/537.36" version="25.0.2">
  <diagram name="Seite-1" id="DcBmS-6wIbEHcgY2LgTG">
    <mxGraphModel dx="875" dy="518" grid="1" gridSize="10" guides="1" tooltips="1" connect="1" arrows="1" fold="1" page="1" pageScale="1" pageWidth="1169" pageHeight="1654" math="0" shadow="0">
      <root>
        <mxCell id="0" />
        <mxCell id="1" parent="0" />
        <mxCell id="r-wl7UR7j-2D6AvPinrx-21" style="edgeStyle=orthogonalEdgeStyle;rounded=0;orthogonalLoop=1;jettySize=auto;html=1;entryX=0.5;entryY=0;entryDx=0;entryDy=0;endArrow=none;endFill=0;" edge="1" parent="1" source="r-wl7UR7j-2D6AvPinrx-15" target="r-wl7UR7j-2D6AvPinrx-16">
          <mxGeometry relative="1" as="geometry" />
        </mxCell>
        <mxCell id="r-wl7UR7j-2D6AvPinrx-15" value="Funktionale Anforderungen" style="rounded=1;whiteSpace=wrap;html=1;fillColor=#7EA6E0;" vertex="1" parent="1">
          <mxGeometry x="350" y="100" width="140" height="60" as="geometry" />
        </mxCell>
        <mxCell id="r-wl7UR7j-2D6AvPinrx-16" value="Extern" style="rounded=1;whiteSpace=wrap;html=1;fillColor=#7EA6E0;" vertex="1" parent="1">
          <mxGeometry x="280" y="200" width="120" height="40" as="geometry" />
        </mxCell>
        <mxCell id="r-wl7UR7j-2D6AvPinrx-17" value="Intern" style="rounded=1;whiteSpace=wrap;html=1;fillColor=#7EA6E0;" vertex="1" parent="1">
          <mxGeometry x="440" y="200" width="120" height="40" as="geometry" />
        </mxCell>
        <mxCell id="r-wl7UR7j-2D6AvPinrx-22" style="edgeStyle=orthogonalEdgeStyle;rounded=0;orthogonalLoop=1;jettySize=auto;html=1;entryX=0.5;entryY=0;entryDx=0;entryDy=0;endArrow=none;endFill=0;exitX=0.5;exitY=1;exitDx=0;exitDy=0;" edge="1" parent="1" source="r-wl7UR7j-2D6AvPinrx-15" target="r-wl7UR7j-2D6AvPinrx-17">
          <mxGeometry relative="1" as="geometry">
            <mxPoint x="430" y="170" as="sourcePoint" />
            <mxPoint x="350" y="210" as="targetPoint" />
          </mxGeometry>
        </mxCell>
        <mxCell id="r-wl7UR7j-2D6AvPinrx-23" value="Randbedingungen" style="rounded=1;whiteSpace=wrap;html=1;fillColor=#7EA6E0;" vertex="1" parent="1">
          <mxGeometry x="530" y="100" width="140" height="60" as="geometry" />
        </mxCell>
        <mxCell id="r-wl7UR7j-2D6AvPinrx-25" style="edgeStyle=orthogonalEdgeStyle;rounded=0;orthogonalLoop=1;jettySize=auto;html=1;entryX=0.5;entryY=0;entryDx=0;entryDy=0;endArrow=none;endFill=0;" edge="1" parent="1" source="r-wl7UR7j-2D6AvPinrx-26" target="r-wl7UR7j-2D6AvPinrx-27">
          <mxGeometry relative="1" as="geometry" />
        </mxCell>
        <mxCell id="r-wl7UR7j-2D6AvPinrx-26" value="QualitÃ¤tsanforderungen&amp;nbsp;&lt;div&gt;&amp;amp; Nicht-funktionale Anforderungen&lt;/div&gt;" style="rounded=1;whiteSpace=wrap;html=1;fillColor=#7EA6E0;" vertex="1" parent="1">
          <mxGeometry x="710" y="100" width="140" height="60" as="geometry" />
        </mxCell>
        <mxCell id="r-wl7UR7j-2D6AvPinrx-27" value="Extern" style="rounded=1;whiteSpace=wrap;html=1;fillColor=#7EA6E0;" vertex="1" parent="1">
          <mxGeometry x="640" y="200" width="120" height="40" as="geometry" />
        </mxCell>
        <mxCell id="r-wl7UR7j-2D6AvPinrx-28" value="Intern" style="rounded=1;whiteSpace=wrap;html=1;fillColor=#7EA6E0;" vertex="1" parent="1">
          <mxGeometry x="800" y="200" width="120" height="40" as="geometry" />
        </mxCell>
        <mxCell id="r-wl7UR7j-2D6AvPinrx-29" style="edgeStyle=orthogonalEdgeStyle;rounded=0;orthogonalLoop=1;jettySize=auto;html=1;entryX=0.5;entryY=0;entryDx=0;entryDy=0;endArrow=none;endFill=0;exitX=0.5;exitY=1;exitDx=0;exitDy=0;" edge="1" parent="1" source="r-wl7UR7j-2D6AvPinrx-26" target="r-wl7UR7j-2D6AvPinrx-28">
          <mxGeometry relative="1" as="geometry">
            <mxPoint x="790" y="170" as="sourcePoint" />
            <mxPoint x="710" y="210" as="targetPoint" />
          </mxGeometry>
        </mxCell>
      </root>
    </mxGraphModel>
  </diagram>
</mxfile>
